<?xml version="1.0" standalone="no"?>
<!DOCTYPE svg PUBLIC "-//W3C//DTD SVG 20010904//EN"
 "http://www.w3.org/TR/2001/REC-SVG-20010904/DTD/svg10.dtd">
<svg version="1.0" xmlns="http://www.w3.org/2000/svg"
 width="360.000000pt" height="360.000000pt" viewBox="0 0 360.000000 360.000000"
 preserveAspectRatio="xMidYMid meet">

<g transform="translate(0.000000,360.000000) scale(0.100000,-0.100000)"
fill="#000000" stroke="none">
<path d="M1165 2606 c-79 -25 -148 -69 -214 -134 -327 -328 -369 -985 -90
-1402 73 -109 167 -198 255 -241 58 -29 78 -34 143 -34 61 0 85 5 124 25 60
30 132 106 160 168 30 68 28 206 -5 325 -14 48 -22 87 -19 87 16 0 92 -90 117
-140 28 -55 28 -57 34 -295 l5 -240 28 -3 28 -3 -3 523 -3 523 -31 60 c-33 62
-114 147 -151 159 -21 7 -20 8 15 109 48 137 56 257 22 335 -23 54 -87 119
-145 150 -78 40 -194 52 -270 28z m227 -84 c52 -26 101 -72 126 -117 28 -52
21 -155 -17 -270 -18 -55 -36 -103 -40 -106 -3 -4 -37 -3 -75 1 -78 9 -113 34
-125 90 -9 44 -35 61 -58 37 -14 -14 -15 -23 -6 -54 5 -21 14 -46 17 -55 7
-15 0 -17 -51 -20 -54 -3 -58 -5 -58 -28 l0 -25 157 -5 c86 -3 160 -9 164 -13
4 -4 -2 -35 -14 -70 -12 -34 -22 -70 -22 -81 0 -11 -5 -16 -14 -13 -47 18
-148 28 -266 25 -134 -3 -135 -3 -138 -27 -5 -30 12 -41 66 -41 41 0 42 -1 35
-27 -12 -46 -9 -75 9 -86 21 -14 48 7 48 38 0 12 11 34 25 49 21 23 32 26 82
25 32 0 76 -6 98 -12 l39 -12 12 -80 c6 -44 14 -89 17 -100 7 -20 2 -20 -181
-20 l-187 0 0 -30 c0 -30 1 -30 58 -33 44 -2 56 -6 49 -15 -6 -7 -13 -28 -17
-48 -5 -27 -2 -39 10 -49 23 -19 44 -4 60 43 21 60 37 68 137 65 47 -2 90 -6
94 -10 14 -15 65 -215 71 -279 11 -131 -38 -233 -139 -283 -87 -43 -171 -31
-276 41 -114 78 -241 282 -296 476 -107 375 -9 814 231 1039 48 44 109 82 163
99 48 16 162 5 212 -19z m151 -619 c77 -54 127 -163 127 -280 0 -59 -8 -66
-32 -25 -24 41 -97 110 -146 139 -40 23 -43 28 -37 57 10 49 38 136 44 136 3
0 22 -12 44 -27z m-13 -282 c63 -62 112 -150 126 -225 l7 -39 -39 43 c-21 23
-62 55 -90 71 -45 26 -53 36 -62 72 -19 78 -25 137 -13 137 6 0 38 -27 71 -59z"/>
<path d="M2215 2466 c-69 -22 -126 -56 -170 -102 -87 -89 -98 -208 -36 -394
21 -63 34 -117 29 -118 -28 -11 -109 -87 -137 -128 -60 -92 -61 -98 -61 -640
0 -465 1 -494 18 -503 43 -23 47 -6 52 256 l5 248 29 51 c28 51 101 132 110
123 3 -3 -3 -32 -14 -65 -25 -83 -41 -203 -34 -261 19 -143 144 -268 283 -280
167 -15 362 139 483 382 44 87 93 236 110 335 18 107 15 346 -6 445 -47 220
-128 385 -246 505 -134 134 -284 187 -415 146z m236 -93 c122 -60 245 -215
308 -389 107 -292 90 -629 -44 -909 -100 -209 -243 -339 -387 -352 -78 -8
-154 29 -203 96 -66 90 -69 178 -14 377 l31 112 36 6 c20 3 63 6 95 6 50 0 61
-4 82 -26 14 -15 25 -37 25 -49 0 -31 27 -52 48 -38 18 11 22 52 8 91 -7 21
-5 22 43 22 57 0 81 22 58 54 -11 15 -32 17 -191 14 l-178 -3 7 40 c4 22 10
67 14 99 l6 60 50 13 c113 29 180 9 194 -57 8 -41 33 -59 55 -41 20 17 20 47
2 83 l-14 27 56 3 c56 3 57 4 57 33 l0 30 -130 3 c-115 3 -226 -7 -270 -24
-10 -4 -15 0 -15 13 0 11 -9 47 -21 82 -12 34 -19 65 -16 68 3 3 59 5 124 5
65 -1 136 2 158 6 34 6 40 11 40 32 0 23 -4 25 -57 28 -32 2 -58 5 -58 6 0 2
7 17 15 32 31 59 9 118 -34 94 -14 -7 -21 -21 -21 -39 0 -32 -41 -79 -74 -86
-12 -2 -44 -6 -73 -9 l-52 -5 -20 53 c-37 100 -52 166 -53 229 0 74 10 103 53
151 58 67 130 96 224 93 56 -2 84 -9 136 -34z m-352 -655 c11 -40 21 -78 21
-84 0 -6 -22 -25 -50 -43 -46 -30 -150 -136 -150 -153 0 -4 -3 -8 -7 -8 -5 0
-6 42 -3 93 6 94 23 141 77 202 20 22 74 64 84 65 3 0 16 -33 28 -72z m15
-249 c-20 -104 -19 -103 -84 -143 -32 -20 -73 -53 -90 -74 -16 -20 -30 -31
-30 -25 0 33 42 137 75 187 33 50 115 126 135 126 4 0 2 -32 -6 -71z"/>
</g>
</svg>
